<?xml version="1.0" encoding="utf-8"?>
<!-- Generator: Adobe Illustrator 18.0.0, SVG Export Plug-In . SVG Version: 6.00 Build 0)  -->
<!DOCTYPE svg PUBLIC "-//W3C//DTD SVG 1.1//EN" "http://www.w3.org/Graphics/SVG/1.1/DTD/svg11.dtd">
<svg version="1.1" id="Layer_1" xmlns="http://www.w3.org/2000/svg" xmlns:xlink="http://www.w3.org/1999/xlink" x="0px" y="0px"
	 viewBox="0 0 742 502.8" enable-background="new 0 0 742 502.8" xml:space="preserve">
<g>
	<path d="M256.7,307h-53.3V168.8H53.6V307H0.5V0.4h53.1v125.4h149.8V0.4h53.3V307z"/>
	<path d="M296.8,307V0.4h53.1V264h137.6v43H296.8z"/>
	<path d="M551,184.5V307h-53.1V0.4h91.8c41.9,0,73,7.4,93.1,22.2c20.1,14.8,30.2,37.2,30.2,67.1c0,38.2-21,65.4-63.1,81.6L741.7,307
		h-60.4l-77.8-122.5H551z M551,143h36.9c24.7,0,42.7-4.3,53.8-13c11.1-8.7,16.7-21.5,16.7-38.6c0-17.3-6-29.8-18-37.3
		s-30.1-11.3-54.2-11.3H551V143z"/>
	<path d="M61.9,484.7c0-10.3,4.4-15.4,13.3-15.4c9.1,0,13.7,5.1,13.7,15.4c0,10.3-4.6,15.4-13.7,15.4
		C66.3,500.1,61.9,495,61.9,484.7z"/>
	<path d="M193.1,500.1c-25.9,0-46.2-7.7-60.8-23.1c-14.7-15.4-22-36.9-22-64.5c0-28.3,7.6-50.4,22.8-66.1
		c15.2-15.8,36.1-23.7,62.5-23.7c15.7,0,30.7,2.6,45,7.7l-4.5,13.8c-15.7-4.9-29.3-7.4-40.8-7.4c-22.2,0-39.1,6.5-50.5,19.4
		c-11.4,13-17.2,31.6-17.2,55.9c0,23.1,5.7,41.1,17.2,54.2c11.4,13.1,27.4,19.6,48,19.6c16.4,0,31.7-2.8,45.8-8.3v14.5
		C227.1,497.5,211.9,500.1,193.1,500.1z"/>
	<path d="M407.2,411.3c0,27.9-7.2,49.7-21.5,65.3c-14.3,15.7-34.1,23.5-59.3,23.5c-15.9,0-29.9-3.6-42-10.9
		c-12.1-7.2-21.4-17.6-27.8-31.1c-6.4-13.5-9.7-29.1-9.7-46.9c0-27.9,7.2-49.6,21.5-65.2c14.3-15.6,34-23.4,59-23.4
		c24.9,0,44.4,7.9,58.6,23.7C400.1,362.2,407.2,383.8,407.2,411.3z M264.2,411.3c0,23.5,5.5,41.8,16.4,55
		C291.6,479.4,307,486,327,486s35.5-6.6,46.4-19.7c10.9-13.2,16.4-31.5,16.4-55c0-23.6-5.5-41.9-16.6-54.9
		c-11.1-13-26.6-19.5-46.6-19.5s-35.4,6.5-46.3,19.4C269.6,369.3,264.2,387.6,264.2,411.3z"/>
	<path d="M658.1,497V384.9c0-16.7-3.4-28.8-10.3-36.5c-6.9-7.7-17.4-11.5-31.7-11.5c-18.6,0-32.3,4.8-41.2,14.5
		c-8.9,9.6-13.3,24.8-13.3,45.5V497h-16.8V380.1c0-28.8-14-43.3-42-43.3c-19,0-32.8,5.2-41.5,15.6c-8.7,10.4-13,27.1-13,50.1V497
		h-16.5V326h13.7l3.5,23.4h1c5-8.5,12.1-15.1,21.3-19.7c9.2-4.7,19.4-7,30.5-7c28.6,0,46.9,10.1,55,30.4h0.7
		c5.9-9.8,13.8-17.2,23.8-22.5c9.9-5.2,21.3-7.9,33.9-7.9c19.8,0,34.6,5,44.5,14.9c9.9,10,14.8,25.8,14.8,47.5V497H658.1z"/>
</g>
<g>
</g>
<g>
</g>
<g>
</g>
<g>
</g>
<g>
</g>
<g>
</g>
</svg>
