<?xml version="1.0" encoding="utf-8"?>
<!-- Generator: Adobe Illustrator 18.0.0, SVG Export Plug-In . SVG Version: 6.00 Build 0)  -->
<!DOCTYPE svg PUBLIC "-//W3C//DTD SVG 1.1//EN" "http://www.w3.org/Graphics/SVG/1.1/DTD/svg11.dtd">
<svg version="1.1" id="Layer_1" xmlns="http://www.w3.org/2000/svg" xmlns:xlink="http://www.w3.org/1999/xlink" x="0px" y="0px"
	 viewBox="0 0 71.1 60" enable-background="new 0 0 71.1 60" xml:space="preserve">
<g>
	<path d="M6.3,60H0V0.1h6.3v20.5c4.5-2.1,8.7-3.2,12.9-3.2c5.6,0,9.3,1.5,11.2,4.5c1.9,3,2.9,8.3,2.9,16v22H27V38.2
		c0-5.8-0.6-9.7-1.7-11.9c-1.1-2.1-3.5-3.2-7.2-3.2c-3.5,0-6.9,0.6-10.2,1.9l-1.6,0.6V60z"/>
	<path d="M38.2,60V0.1h6.3V60H38.2z"/>
	<path d="M49.8,60V18.3h6.2V24c4.8-3.3,9.9-5.5,15.3-6.6v6.3c-2.3,0.4-4.8,1.1-7.3,2.1c-2.5,0.9-4.5,1.8-5.8,2.5L56,29.4V60H49.8z"
		/>
</g>
<g>
</g>
<g>
</g>
<g>
</g>
<g>
</g>
<g>
</g>
<g>
</g>
</svg>
